<svg width="110" height="131" viewBox="0 0 110 131" fill="none" xmlns="http://www.w3.org/2000/svg">
<path d="M0.971191 8.93152L3.24366 11.8681H107.339L109.63 8.93152H0.971191Z" fill="#0093B9"/>
<g opacity="0.4">
<path d="M0.971191 8.93152L3.24366 11.8681H107.339L109.63 8.93152H0.971191Z" fill="#002029"/>
</g>
<path d="M107.564 4.88684H2.77466V131H107.564V4.88684Z" fill="#0093B9"/>
<g opacity="0.4">
<path d="M107.564 4.88696H2.77466V129.782H107.564V4.88696Z" fill="white"/>
</g>
<g opacity="0.8">
<path d="M7.25865 9.69925C7.29884 9.96797 7.28077 10.2422 7.20567 10.5033C7.13056 10.7644 7.00017 11.0063 6.82335 11.2126C6.64652 11.4189 6.42741 11.5848 6.18085 11.6989C5.9343 11.8131 5.66606 11.8729 5.39437 11.8742C4.81002 11.8513 4.25342 11.6189 3.82616 11.2196C3.3989 10.8203 3.12948 10.2807 3.06707 9.69925C3.02496 9.42882 3.04175 9.15249 3.11628 8.88914C3.19082 8.62579 3.32133 8.38165 3.49893 8.1734C3.67652 7.96515 3.89699 7.7977 4.14526 7.68251C4.39353 7.56732 4.66375 7.50711 4.93743 7.50598C5.52354 7.53096 6.08097 7.76652 6.50737 8.16942C6.93376 8.57232 7.20051 9.1155 7.25865 9.69925Z" fill="white"/>
<path d="M11.1031 9.69925C11.1405 9.9695 11.1196 10.2446 11.0419 10.5061C10.9642 10.7677 10.8314 11.0095 10.6525 11.2155C10.4737 11.4215 10.2528 11.5869 10.0048 11.7005C9.75674 11.8141 9.48727 11.8733 9.21445 11.8742C8.63439 11.8456 8.08363 11.6107 7.6614 11.212C7.23917 10.8132 6.97324 10.2767 6.91151 9.69925C6.87136 9.42813 6.88993 9.15154 6.96597 8.88822C7.04201 8.62489 7.17375 8.38098 7.35227 8.173C7.53078 7.96503 7.7519 7.79784 8.00066 7.68276C8.24941 7.56767 8.51999 7.50739 8.79407 7.50598C9.37803 7.53381 9.93253 7.77064 10.3564 8.17327C10.7803 8.5759 11.0453 9.11749 11.1031 9.69925Z" fill="white"/>
<path d="M14.9414 9.69925C14.9768 9.97018 14.9542 10.2455 14.875 10.5071C14.7958 10.7686 14.6619 11.0102 14.4821 11.216C14.3023 11.4217 14.0807 11.5868 13.8322 11.7003C13.5836 11.8138 13.3138 11.8731 13.0405 11.8742C12.4594 11.8528 11.906 11.62 11.4842 11.2196C11.0625 10.8191 10.8013 10.2785 10.7498 9.69925C10.7125 9.4271 10.7337 9.15013 10.812 8.88683C10.8903 8.62353 11.0239 8.37995 11.2038 8.17237C11.3837 7.96479 11.6058 7.79797 11.8553 7.68306C12.1048 7.56814 12.3759 7.50777 12.6506 7.50598C13.2347 7.52792 13.7904 7.76328 14.2126 8.16749C14.6348 8.5717 14.8941 9.11669 14.9414 9.69925Z" fill="white"/>
<path d="M18.7793 9.69925C18.811 9.971 18.7851 10.2464 18.7033 10.5075C18.6215 10.7685 18.4857 11.0095 18.3047 11.2146C18.1237 11.4198 17.9015 11.5845 17.6527 11.6982C17.4038 11.8118 17.1338 11.8718 16.8602 11.8742C16.281 11.8523 15.7299 11.6189 15.3111 11.2181C14.8924 10.8173 14.635 10.277 14.5877 9.69925C14.5543 9.42576 14.5789 9.14827 14.6602 8.88498C14.7414 8.62169 14.8774 8.37854 15.0592 8.17146C15.2409 7.96438 15.4644 7.79805 15.7149 7.68336C15.9655 7.56868 16.2374 7.50823 16.5129 7.50598C17.0944 7.52849 17.6472 7.76471 18.0654 8.1694C18.4836 8.57409 18.7378 9.11881 18.7793 9.69925Z" fill="white"/>
<path d="M22.6237 9.69925C22.6526 9.97199 22.6242 10.2477 22.5402 10.5088C22.4563 10.7699 22.3187 11.0106 22.1363 11.2154C21.9538 11.4202 21.7306 11.5846 21.4809 11.698C21.2312 11.8115 20.9606 11.8715 20.6863 11.8742C20.1086 11.8532 19.559 11.6196 19.143 11.2182C18.7269 10.8168 18.4738 10.2759 18.4322 9.69925C18.4005 9.42509 18.4269 9.14735 18.5096 8.88406C18.5923 8.62076 18.7295 8.37781 18.9122 8.17097C19.0949 7.96413 19.3191 7.79804 19.5701 7.68348C19.8212 7.56891 20.0936 7.50844 20.3695 7.50598C20.9506 7.52607 21.5034 7.76182 21.9202 8.1673C22.3369 8.57278 22.5877 9.11892 22.6237 9.69925Z" fill="white"/>
<path d="M26.462 9.69925C26.4881 9.97295 26.4572 10.2491 26.3711 10.5102C26.2849 10.7713 26.1456 11.0117 25.9617 11.2162C25.7779 11.4207 25.5536 11.5847 25.3031 11.698C25.0525 11.8113 24.7812 11.8713 24.5063 11.8742C23.93 11.8542 23.3819 11.6204 22.9685 11.2183C22.5552 10.8162 22.3063 10.2747 22.2704 9.69925C22.2415 9.42411 22.2704 9.14598 22.3553 8.88267C22.4402 8.61936 22.5791 8.37669 22.7633 8.1702C22.9474 7.96372 23.1726 7.79797 23.4245 7.68359C23.6764 7.56921 23.9494 7.50871 24.226 7.50598C24.8057 7.52504 25.3571 7.76098 25.7712 8.16713C26.1852 8.57328 26.4317 9.12005 26.462 9.69925Z" fill="white"/>
<path d="M30.3186 9.69925C30.342 9.97391 30.3086 10.2505 30.2204 10.5116C30.1321 10.7728 29.991 11.0129 29.8057 11.217C29.6204 11.4212 29.3951 11.5849 29.1437 11.698C28.8923 11.8111 28.6203 11.8711 28.3446 11.8742C27.7698 11.8552 27.223 11.6212 26.8124 11.2185C26.4018 10.8157 26.1572 10.2736 26.127 9.69925C26.0999 9.42347 26.1305 9.14507 26.2169 8.88175C26.3032 8.61842 26.4433 8.37593 26.6284 8.16967C26.8134 7.96341 27.0394 7.79789 27.2918 7.68364C27.5443 7.56938 27.8177 7.50888 28.0948 7.50598C28.6733 7.52524 29.2233 7.76161 29.6353 8.16803C30.0474 8.57445 30.2913 9.12112 30.3186 9.69925Z" fill="white"/>
<path d="M34.1444 9.69925C34.1652 9.97536 34.1292 10.2528 34.0384 10.5144C33.9477 10.776 33.8042 11.0162 33.6169 11.2201C33.4296 11.424 33.2023 11.5873 32.9493 11.6998C32.6963 11.8123 32.4229 11.8717 32.146 11.8742C31.5726 11.8563 31.0271 11.6221 30.6192 11.2187C30.2113 10.8153 29.971 10.2725 29.9467 9.69925C29.9232 9.4227 29.957 9.14428 30.0458 8.88132C30.1346 8.61836 30.2765 8.37649 30.4628 8.17076C30.6491 7.96502 30.8758 7.79984 31.1287 7.68547C31.3816 7.5711 31.6553 7.51001 31.9328 7.50598C32.511 7.5226 33.0612 7.75846 33.4718 8.16575C33.8825 8.57303 34.1229 9.12125 34.1444 9.69925Z" fill="white"/>
<path d="M37.9829 9.69925C38.0011 9.97528 37.963 10.2521 37.8709 10.513C37.7789 10.7738 37.6347 11.0132 37.4472 11.2167C37.2598 11.4201 37.0329 11.5833 36.7804 11.6963C36.5279 11.8094 36.2551 11.8699 35.9785 11.8742C35.4058 11.8576 34.861 11.6234 34.4547 11.2194C34.0484 10.8154 33.8112 10.2719 33.7913 9.69925C33.7705 9.42125 33.8069 9.14193 33.8982 8.87851C33.9894 8.61509 34.1337 8.37317 34.3221 8.16766C34.5105 7.96216 34.739 7.79743 34.9935 7.68362C35.248 7.56982 35.5231 7.50936 35.8018 7.50598C36.377 7.52297 36.9238 7.75987 37.3295 8.16789C37.7353 8.57591 37.9692 9.12399 37.9829 9.69925Z" fill="white"/>
<path d="M41.8271 9.69925C41.8418 9.97651 41.8006 10.2539 41.7057 10.5148C41.6108 10.7758 41.4643 11.0149 41.275 11.218C41.0856 11.421 40.8572 11.5838 40.6035 11.6965C40.3498 11.8093 40.0759 11.8697 39.7983 11.8742C39.2264 11.8603 38.6819 11.6265 38.278 11.2214C37.874 10.8163 37.6418 10.2712 37.6294 9.69925C37.6112 9.42082 37.6498 9.1416 37.7428 8.87853C37.8358 8.61546 37.9813 8.37404 38.1705 8.16893C38.3596 7.96381 38.5885 7.79928 38.8432 7.68532C39.0979 7.57135 39.3731 7.51034 39.6521 7.50598C40.2276 7.52006 40.7754 7.75622 41.1808 8.16503C41.5862 8.57383 41.8178 9.12359 41.8271 9.69925Z" fill="white"/>
<path d="M45.6653 9.69925C45.6775 9.97691 45.6341 10.2542 45.5375 10.5148C45.441 10.7755 45.2933 11.0141 45.1031 11.2168C44.9129 11.4195 44.6841 11.5821 44.4302 11.695C44.1762 11.8079 43.9022 11.8688 43.6243 11.8742C43.0547 11.8586 42.5131 11.6237 42.1124 11.2185C41.7117 10.8133 41.4829 10.269 41.4737 9.69925C41.4581 9.4199 41.499 9.14027 41.5941 8.87714C41.6892 8.61401 41.8365 8.37279 42.0271 8.16796C42.2177 7.96314 42.4477 7.79893 42.7033 7.68517C42.9589 7.57142 43.2349 7.51047 43.5147 7.50598C44.0879 7.52023 44.6331 7.7572 45.0346 8.16665C45.4361 8.5761 45.6623 9.12582 45.6653 9.69925Z" fill="white"/>
<path d="M49.5034 9.69925C49.5132 9.97781 49.4674 10.2555 49.3688 10.5162C49.2702 10.777 49.1208 11.0155 48.9291 11.2179C48.7375 11.4203 48.5075 11.5825 48.2526 11.6952C47.9976 11.8079 47.7228 11.8688 47.4442 11.8742C46.8762 11.8585 46.3366 11.623 45.9389 11.2173C45.5411 10.8116 45.3163 10.2674 45.3118 9.69925C45.2996 9.41919 45.3435 9.13951 45.441 8.87667C45.5384 8.61383 45.6875 8.37314 45.8794 8.16877C46.0712 7.96441 46.3021 7.80049 46.5582 7.68666C46.8144 7.57283 47.0908 7.5114 47.3711 7.50598C47.9431 7.51876 48.4873 7.75585 48.8862 8.16613C49.2851 8.57642 49.5067 9.12703 49.5034 9.69925Z" fill="white"/>
<path d="M53.3479 9.69925C53.3552 9.9787 53.3071 10.2568 53.2065 10.5176C53.1059 10.7785 52.9547 11.0168 52.7616 11.2189C52.5685 11.4211 52.3374 11.583 52.0814 11.6955C51.8255 11.808 51.5499 11.8687 51.2704 11.8742C50.7031 11.8615 50.1636 11.6263 49.7682 11.2194C49.3727 10.8126 49.153 10.2666 49.1563 9.69925C49.1466 9.41829 49.1928 9.1382 49.2923 8.87527C49.3918 8.61234 49.5426 8.37183 49.7359 8.16773C49.9293 7.96363 50.1613 7.80001 50.4184 7.6864C50.6756 7.5728 50.9527 7.51147 51.2338 7.50598C51.8037 7.52036 52.3451 7.75854 52.7407 8.169C53.1364 8.57946 53.3545 9.12919 53.3479 9.69925Z" fill="white"/>
<path d="M57.1861 9.69925C57.1671 10.1091 57.0281 10.5043 56.7865 10.8359C56.545 11.1675 56.2114 11.4209 55.8271 11.5646C55.4429 11.7084 55.0249 11.7363 54.625 11.6447C54.2251 11.5532 53.8608 11.3463 53.5774 11.0497C53.294 10.7531 53.1038 10.3798 53.0305 9.97611C52.9572 9.57245 53.0041 9.15615 53.1652 8.77884C53.3262 8.40153 53.5945 8.0798 53.9368 7.85354C54.279 7.62727 54.6801 7.50643 55.0904 7.50598C55.3722 7.51151 55.6503 7.57273 55.9084 7.68611C56.1665 7.7995 56.3997 7.96281 56.5945 8.16666C56.7893 8.3705 56.9418 8.61085 57.0434 8.87387C57.1449 9.1369 57.1934 9.4174 57.1861 9.69925Z" fill="white"/>
<path d="M61.0243 9.69925C61.0293 10.2661 60.8109 10.812 60.4164 11.2191C60.0219 11.6261 59.4831 11.8615 58.9164 11.8742C58.6369 11.8687 58.3612 11.808 58.1053 11.6955C57.8494 11.583 57.6182 11.4211 57.4252 11.2189C57.2321 11.0168 57.0809 10.7785 56.9802 10.5176C56.8796 10.2568 56.8316 9.9787 56.8389 9.69925C56.829 9.1293 57.0453 8.57865 57.4403 8.16766C57.8353 7.75667 58.3769 7.51878 58.9468 7.50598C59.2279 7.51147 59.5051 7.5728 59.7622 7.6864C60.0194 7.80001 60.2514 7.96363 60.4447 8.16773C60.638 8.37183 60.7888 8.61234 60.8884 8.87527C60.9879 9.1382 61.0341 9.41829 61.0243 9.69925Z" fill="white"/>
<path d="M64.8687 9.69925C64.8672 10.2683 64.6434 10.8143 64.245 11.2206C63.8467 11.627 63.3052 11.8615 62.7363 11.8742C62.4576 11.8688 62.1828 11.8079 61.9279 11.6952C61.673 11.5825 61.443 11.4203 61.2514 11.2179C61.0597 11.0155 60.9103 10.777 60.8117 10.5162C60.7131 10.2555 60.6673 9.97781 60.6771 9.69925C60.6737 9.12806 60.8945 8.57835 61.2921 8.16823C61.6897 7.75811 62.2323 7.52033 62.8033 7.50598C63.0839 7.51143 63.3605 7.57283 63.617 7.68658C63.8735 7.80033 64.1047 7.96415 64.2971 8.16843C64.4894 8.37271 64.6391 8.61334 64.7372 8.8762C64.8354 9.13907 64.8801 9.41889 64.8687 9.69925Z" fill="white"/>
<path d="M68.7009 9.69925C68.6933 10.2685 68.4658 10.8127 68.0661 11.2181C67.6664 11.6235 67.1255 11.8586 66.5564 11.8742C66.2782 11.8688 66.004 11.8079 65.7497 11.695C65.4954 11.5822 65.2662 11.4197 65.0755 11.2172C64.8849 11.0146 64.7366 10.776 64.6394 10.5153C64.5421 10.2547 64.4979 9.97721 64.5093 9.69925C64.5123 9.12582 64.7385 8.5761 65.14 8.16665C65.5415 7.7572 66.0867 7.52023 66.66 7.50598C66.9394 7.51131 67.215 7.57283 67.4702 7.68687C67.7255 7.80092 67.9551 7.96515 68.1456 8.16979C68.336 8.37444 68.4833 8.61531 68.5787 8.87807C68.6741 9.14083 68.7157 9.4201 68.7009 9.69925Z" fill="white"/>
<path d="M72.5511 9.69925C72.5372 10.2707 72.3044 10.815 71.9008 11.2197C71.4972 11.6245 70.9536 11.8588 70.3822 11.8742C70.1048 11.8698 69.8312 11.8093 69.5778 11.6965C69.3244 11.5836 69.0964 11.4208 68.9075 11.2176C68.7186 11.0145 68.5727 10.7753 68.4785 10.5144C68.3843 10.2535 68.3438 9.9762 68.3595 9.69925C68.3671 9.12517 68.5965 8.5763 68.9996 8.1675C69.4028 7.7587 69.9484 7.52166 70.5223 7.50598C70.8015 7.51039 71.077 7.57138 71.332 7.68527C71.587 7.79917 71.8162 7.96359 72.0059 8.16861C72.1955 8.37363 72.3416 8.61498 72.4353 8.87806C72.529 9.14115 72.5684 9.42051 72.5511 9.69925Z" fill="white"/>
<path d="M76.3894 9.69925C76.3693 10.2749 76.1296 10.8211 75.7194 11.2256C75.3093 11.63 74.7599 11.8621 74.1839 11.8742C73.9071 11.8698 73.634 11.8093 73.3812 11.6964C73.1284 11.5834 72.9012 11.4203 72.7133 11.217C72.5253 11.0137 72.3806 10.7743 72.2878 10.5134C72.195 10.2526 72.1561 9.97559 72.1735 9.69925C72.1872 9.12399 72.4211 8.57591 72.8268 8.16789C73.2326 7.75987 73.7794 7.52297 74.3545 7.50598C74.6354 7.50604 74.9131 7.56404 75.1705 7.67637C75.4279 7.7887 75.6593 7.95294 75.8503 8.1588C76.0413 8.36467 76.1878 8.60774 76.2805 8.8728C76.3733 9.13786 76.4104 9.41921 76.3894 9.69925Z" fill="white"/>
<path d="M80.2278 9.69925C80.205 10.2719 79.966 10.8147 79.5591 11.2183C79.1521 11.6218 78.6074 11.8562 78.0346 11.8742C77.7559 11.8741 77.4802 11.8166 77.2248 11.7053C76.9693 11.5939 76.7395 11.4311 76.5497 11.2271C76.36 11.023 76.2143 10.782 76.1217 10.5192C76.0292 10.2563 75.9918 9.9772 76.0119 9.69925C76.0317 9.12282 76.27 8.57549 76.6784 8.16821C77.0868 7.76094 77.6347 7.5242 78.2112 7.50598C78.4913 7.50583 78.7684 7.56385 79.0249 7.67637C79.2814 7.78889 79.5117 7.95345 79.7013 8.15964C79.8909 8.36583 80.0356 8.60914 80.1262 8.87417C80.2168 9.1392 80.2515 9.42016 80.2278 9.69925Z" fill="white"/>
<path d="M84.0719 9.69925C84.0417 10.2736 83.7971 10.8157 83.3865 11.2185C82.9759 11.6212 82.4291 11.8552 81.8543 11.8742C81.5786 11.8711 81.3066 11.8111 81.0552 11.698C80.8038 11.5849 80.5784 11.4212 80.3932 11.217C80.2079 11.0129 80.0668 10.7728 79.9785 10.5116C79.8903 10.2505 79.8569 9.97391 79.8803 9.69925C79.9047 9.12119 80.1468 8.57375 80.5582 8.1669C80.9696 7.76005 81.5197 7.52393 82.098 7.50598C82.375 7.50987 82.6483 7.57098 82.9006 7.68547C83.1529 7.79997 83.3788 7.96539 83.5642 8.17133C83.7495 8.37728 83.8903 8.61931 83.9777 8.88224C84.065 9.14518 84.0971 9.42333 84.0719 9.69925Z" fill="white"/>
<path d="M87.9102 9.69925C87.8757 10.2742 87.6281 10.8156 87.2158 11.2178C86.8035 11.62 86.256 11.8541 85.6804 11.8742C85.4052 11.8712 85.1337 11.8112 84.8828 11.698C84.632 11.5848 84.4074 11.4208 84.2231 11.2165C84.0388 11.0121 83.8988 10.7718 83.812 10.5107C83.7251 10.2496 83.6934 9.97327 83.7186 9.69925C83.7488 9.12005 83.9954 8.57328 84.4094 8.16713C84.8235 7.76098 85.3749 7.52504 85.9545 7.50598C86.2312 7.50871 86.5042 7.56921 86.7561 7.68359C87.008 7.79797 87.2332 7.96372 87.4173 8.1702C87.6014 8.37669 87.7404 8.61936 87.8253 8.88267C87.9101 9.14598 87.9391 9.42411 87.9102 9.69925Z" fill="white"/>
<path d="M91.7486 9.69925C91.7097 10.2758 91.4583 10.8174 91.043 11.2192C90.6277 11.621 90.078 11.8544 89.5005 11.8742C89.2286 11.8673 88.9611 11.8042 88.7148 11.689C88.4684 11.5737 88.2485 11.4088 88.0689 11.2046C87.8893 11.0004 87.7538 10.7613 87.6709 10.5022C87.5881 10.2432 87.5597 9.9698 87.5875 9.69925C87.6235 9.11892 87.8743 8.57278 88.291 8.1673C88.7078 7.76182 89.2606 7.52607 89.8417 7.50598C90.1151 7.51264 90.384 7.5762 90.6315 7.69261C90.8789 7.80902 91.0994 7.97573 91.2788 8.18209C91.4582 8.38846 91.5927 8.62995 91.6736 8.89117C91.7545 9.15239 91.78 9.4276 91.7486 9.69925Z" fill="white"/>
<path d="M95.5929 9.69925C95.547 10.2764 95.2909 10.8167 94.8732 11.2176C94.4554 11.6185 93.9051 11.8522 93.3265 11.8742C93.0524 11.8727 92.7817 11.8133 92.5321 11.7C92.2825 11.5868 92.0596 11.4221 91.8779 11.2169C91.6963 11.0116 91.5599 10.7704 91.4778 10.5089C91.3956 10.2474 91.3696 9.97151 91.4013 9.69925C91.4415 9.11833 91.6953 8.57285 92.1138 8.16789C92.5322 7.76294 93.0857 7.52716 93.6676 7.50598C93.9432 7.50823 94.2151 7.56868 94.4657 7.68336C94.7162 7.79805 94.9397 7.96438 95.1214 8.17146C95.3032 8.37854 95.4392 8.62169 95.5204 8.88498C95.6016 9.14827 95.6263 9.42576 95.5929 9.69925Z" fill="white"/>
<path d="M99.4311 9.69925C99.3797 10.2775 99.1194 10.8173 98.6989 11.2176C98.2784 11.6179 97.7265 11.8513 97.1464 11.8742C96.8733 11.872 96.6037 11.8121 96.3554 11.6983C96.107 11.5845 95.8855 11.4195 95.7055 11.2141C95.5254 11.0088 95.3908 10.7676 95.3105 10.5065C95.2302 10.2455 95.206 9.97034 95.2395 9.69925C95.2866 9.11769 95.5451 8.57352 95.966 8.16945C96.3869 7.76538 96.9411 7.52938 97.5241 7.50598C97.799 7.50789 98.0704 7.56829 98.3201 7.68315C98.5699 7.798 98.7923 7.9647 98.9727 8.17215C99.1531 8.3796 99.2872 8.62307 99.3663 8.88637C99.4453 9.14966 99.4674 9.42676 99.4311 9.69925Z" fill="white"/>
<path d="M103.275 9.69925C103.214 10.2738 102.951 10.8079 102.532 11.2063C102.114 11.6046 101.567 11.8414 100.99 11.8742C100.718 11.8733 100.448 11.8141 100.2 11.7005C99.9521 11.5869 99.7312 11.4215 99.5523 11.2155C99.3734 11.0095 99.2407 10.7677 99.163 10.5061C99.0853 10.2446 99.0644 9.9695 99.1018 9.69925C99.1594 9.11848 99.4235 8.57769 99.8462 8.17519C100.269 7.77269 100.822 7.53523 101.405 7.50598C101.677 7.51011 101.946 7.57232 102.193 7.68848C102.44 7.80464 102.659 7.97207 102.836 8.17961C103.013 8.38715 103.144 8.63004 103.219 8.89208C103.295 9.15412 103.314 9.42929 103.275 9.69925Z" fill="white"/>
<path d="M107.114 9.69925C107.051 10.2797 106.783 10.8185 106.357 11.2177C105.931 11.6169 105.376 11.8498 104.792 11.8742C104.52 11.8727 104.252 11.8129 104.005 11.6988C103.758 11.5847 103.539 11.419 103.362 11.2128C103.184 11.0067 103.053 10.7649 102.978 10.5038C102.902 10.2427 102.883 9.96831 102.922 9.69925C102.98 9.1155 103.247 8.57232 103.673 8.16942C104.1 7.76652 104.657 7.53096 105.243 7.50598C105.517 7.50711 105.787 7.56732 106.035 7.68251C106.284 7.7977 106.504 7.96515 106.682 8.1734C106.859 8.38165 106.99 8.62579 107.064 8.88914C107.139 9.15249 107.156 9.42882 107.114 9.69925Z" fill="white"/>
</g>
<path d="M0.965088 5.95837H109.636L109.63 8.93148H0.971177L0.965088 5.95837Z" fill="#0093B9"/>
<path d="M0.959229 2.98535L3.22561 5.95845H107.351L109.642 2.98535H0.959229Z" fill="#0093B9"/>
<g opacity="0.4">
<path d="M0.959229 2.98535L3.22561 5.95845H107.351L109.642 2.98535H0.959229Z" fill="#002029"/>
</g>
<path d="M0.946777 0H109.648L109.642 2.98529H0.958965L0.946777 0Z" fill="#0093B9"/>
<g opacity="0.8">
<path d="M3.21924 2.98535H107.357L107.351 5.95845H3.22533L3.21924 2.98535Z" fill="white"/>
</g>
<g opacity="0.7">
<path d="M107.387 64.4884H3.06079V65.7983H107.387V64.4884Z" fill="white"/>
</g>
<g opacity="0.8">
<path d="M107.382 129.5H3.27441V130.804H107.382V129.5Z" fill="white"/>
</g>
<path d="M37.5808 17.5646H24.6831V31.4979H37.5808V17.5646Z" fill="#0093B9"/>
<path d="M62.3527 17.5646H49.4551V31.4979H62.3527V17.5646Z" fill="#0093B9"/>
<path d="M87.1245 17.5646H74.2268V31.4979H87.1245V17.5646Z" fill="#0093B9"/>
<path d="M37.5808 38.4249H24.6831V52.3583H37.5808V38.4249Z" fill="#0093B9"/>
<path d="M62.3527 38.4249H49.4551V52.3583H62.3527V38.4249Z" fill="#0093B9"/>
<path d="M87.1245 38.4249H74.2268V52.3583H87.1245V38.4249Z" fill="#0093B9"/>
<path d="M37.4099 79.2144H24.5122V93.1477H37.4099V79.2144Z" fill="#0093B9"/>
<path d="M62.1821 79.2144H49.2844V93.1477H62.1821V79.2144Z" fill="#0093B9"/>
<path d="M86.9536 79.2144H74.0559V93.1477H86.9536V79.2144Z" fill="#0093B9"/>
<path d="M23.5925 108.55H10.6948V122.483H23.5925V108.55Z" fill="#0093B9"/>
<path d="M99.3701 108.55H86.4724V122.483H99.3701V108.55Z" fill="#0093B9"/>
<g opacity="0.8">
<path d="M40.109 110.182H53.4575L53.4026 124.043H40.0176L40.109 110.182Z" fill="white"/>
</g>
<g opacity="0.8">
<path d="M56.0344 110.182H69.9312L69.2732 124.043H55.8882L56.0344 110.182Z" fill="white"/>
</g>
<path d="M72.2528 127.089H37.0325L36.8923 124.298H72.3868L72.2528 127.089Z" fill="#0093B9"/>
<g opacity="0.1">
<path d="M72.0577 126.833H36.8374L36.6973 124.042H72.1917L72.0577 126.833Z" fill="white"/>
</g>
<path d="M73.4771 129.781H35.5944L35.4421 127.034H73.6173L73.4771 129.781Z" fill="#0093B9"/>
<g opacity="0.4">
<path d="M74.7321 105.272H34.2419L34.0652 102.134H74.8905L74.7321 105.272Z" fill="white"/>
</g>
<path d="M34.2419 105.271L40.1089 110.182H69.9313L74.7322 105.271H34.2419Z" fill="#004152"/>
<path d="M36.9834 107.569L39.0548 124.018H40.6998L40.0357 107.569C39.5645 107.327 39.0424 107.2 38.5126 107.2C37.9828 107.2 37.4607 107.327 36.9895 107.569H36.9834Z" fill="#0093B9"/>
<path d="M72.5634 107.568L70.5346 124.018H68.8896L69.4989 107.568C69.9515 107.272 70.4808 107.114 71.022 107.114C71.5632 107.114 72.0925 107.272 72.5451 107.568H72.5634Z" fill="#0093B9"/>
<path d="M3.21924 2.98535H107.357L107.351 5.95845H3.22533L3.21924 2.98535Z" fill="#0093B9"/>
</svg>
