<svg width="77" height="131" viewBox="0 0 77 131" fill="none" xmlns="http://www.w3.org/2000/svg">
<path d="M23.9772 53.0909L23.5393 53.5983C19.8597 57.7941 18.7173 63.6542 20.7296 68.8068C20.9887 69.4701 21.2959 70.1136 21.6488 70.7322C22.9602 72.9617 24.802 74.8329 27.0105 76.1794C29.2191 77.526 31.726 78.3063 34.3085 78.451C37.3561 78.5989 40.5804 77.8711 43.3554 79.1208C46.9654 80.733 48.4065 84.9578 49.4794 88.7331C50.5523 92.5084 52.0021 96.7331 55.6208 98.3279C57.8854 99.3254 60.5502 99.021 62.8873 98.1424C69.0548 95.8227 73.2708 89.661 74.2915 83.2151C75.3122 76.7692 73.4796 70.1494 70.319 64.4545C65.8942 56.4805 58.5987 49.8752 49.7636 47.3235C40.9284 44.7718 30.5883 46.6914 23.9772 53.0909Z" fill="#EBFBFF"/>
<path d="M28.8796 30.6143C37.3335 30.6143 44.1868 23.761 44.1868 15.3071C44.1868 6.85323 37.3335 0 28.8796 0C20.4257 0 13.5725 6.85323 13.5725 15.3071C13.5725 23.761 20.4257 30.6143 28.8796 30.6143Z" fill="#EBFBFF"/>
<path d="M74.3024 121.742C75.4922 116.63 72.3119 111.52 67.1991 110.33C62.0862 109.141 56.9769 112.321 55.7871 117.434C54.5973 122.547 57.7776 127.656 62.8904 128.846C68.0033 130.036 73.1126 126.855 74.3024 121.742Z" fill="#EBFBFF"/>
<path d="M14.2366 127.331C14.2366 127.331 12.7259 124.652 14.8774 113.564C16.1126 107.202 21.5813 98.9988 21.5813 98.9988C21.5813 98.9988 47.7621 99.6483 47.7853 100.066C47.8084 100.483 55.7969 108.599 56.9568 117.04C58.1166 125.481 57.8904 127.331 57.8904 127.331H14.2366Z" fill="#263238"/>
<path d="M34.9052 117.507C34.8646 117.507 34.6674 114.167 34.4645 110.047C34.2615 105.926 34.1339 102.58 34.1745 102.577C34.2151 102.574 34.4152 105.915 34.6153 110.038C34.8153 114.161 34.9487 117.504 34.9052 117.507Z" fill="#455A64"/>
<path d="M37.2598 103.627C36.7843 103.604 36.3174 104.088 36.1841 104.497C36.0828 104.799 36.0896 105.128 36.2035 105.426C36.3173 105.725 36.531 105.974 36.8083 106.133C37.0855 106.291 37.4091 106.349 37.7239 106.295C38.0388 106.242 38.3253 106.081 38.5348 105.84C38.7442 105.599 38.8637 105.293 38.8727 104.973C38.8817 104.654 38.7798 104.342 38.5843 104.089C38.3887 103.837 38.1117 103.66 37.8004 103.589C37.4891 103.518 37.1628 103.557 36.8771 103.699" fill="#455A64"/>
<path d="M28.3289 53.3096L30.0483 48.9602L40.3072 48.418L44.4972 48.9602L44.9582 50.1635L47.8028 100.484C47.8028 100.484 37.8657 102.487 32.8958 101.791C27.9258 101.095 22.0889 98.828 22.0889 98.828V70.2116L28.3289 53.3096Z" fill="#C2F2FF"/>
<path d="M43.7692 55.3537C43.751 55.3872 43.7275 55.4175 43.6996 55.4436L43.4764 55.6929C43.2792 55.9104 42.9834 56.2207 42.6065 56.6034C41.5488 57.6519 40.4264 58.6329 39.2458 59.5408L39.1994 59.5813L39.1559 59.535C38.0471 58.3184 37.0185 57.0312 36.0765 55.6813L35.772 55.2377H35.8967L33.4292 58.5578C33.3333 58.6904 33.218 58.8077 33.087 58.9057C32.9512 59.0089 32.7809 59.0557 32.6115 59.0362C32.453 59.0031 32.3089 58.9209 32.1997 58.8013C32.0972 58.6964 32.0004 58.5861 31.9098 58.4708L30.9384 57.25L29.5408 55.4871L29.1667 55.0028C29.121 54.9486 29.0802 54.8904 29.0449 54.8289C29.0994 54.875 29.1481 54.9276 29.1899 54.9854C29.2885 55.1014 29.4219 55.2551 29.5842 55.4494L31.0196 57.1892L32.0054 58.3954C32.1823 58.6071 32.3592 58.8651 32.626 58.9086C32.8927 58.9521 33.1334 58.7202 33.3161 58.4766L35.7692 55.1507L35.83 55.0666L35.8909 55.1536L36.1954 55.5944C37.134 56.9386 38.1547 58.2237 39.2516 59.4422H39.1588C40.3393 58.5387 41.469 57.5707 42.5427 56.5425C42.937 56.1685 43.2386 55.8669 43.4445 55.6726C43.5431 55.577 43.6213 55.5016 43.6822 55.4378C43.7073 55.406 43.7366 55.3777 43.7692 55.3537Z" fill="#263238"/>
<g opacity="0.3">
<path d="M32.0491 58.5463C32.0491 58.5463 33.3481 60.1469 33.7135 59.7468C34.0788 59.3466 36.0071 56.36 36.239 56.2353C36.471 56.1106 38.7965 60.2948 39.7186 60.0048C40.6407 59.7149 43.8911 56.4557 43.8911 56.4557L43.9549 55.1711L39.2083 59.4916L35.8389 55.2001L33.0031 58.8885C33.0031 58.8885 32.3941 59.3553 32.0491 58.5463Z" fill="black"/>
</g>
<path d="M23.8926 24.3828C23.8926 24.3828 21.2104 34.4155 20.9784 41.5167L20.9001 43.8799C20.9001 43.8799 26.8241 48.8093 31.7882 49.0992L35.9521 38.8635L23.8926 24.3828Z" fill="#263238"/>
<path d="M50.192 30.5358C49.0612 25.6413 48.6262 19.9464 44.5552 16.7568C41.5367 14.3878 38.0948 13.7267 34.2615 13.8891C32.3738 13.9674 30.2426 14.8373 28.5956 15.768C26.3426 17.0439 25.3886 19.6332 24.2984 21.9848C22.1208 26.6967 22.3962 33.0759 23.8721 34.8476L43.5577 45.2427C47.4896 43.1985 49.9514 42.3837 50.5806 37.1441C50.8347 34.9354 50.7033 32.6995 50.192 30.5358Z" fill="#263238"/>
<path d="M44.3492 20.6452L31.962 16.9888C27.9692 16.4089 25.1101 21.2368 24.6984 25.2498C24.2431 29.7066 23.8604 35.1666 24.2576 38.5214C25.0579 45.266 30.1642 46.3214 30.1642 46.3214L30.1265 49.0297L35.7692 55.0261L44.3927 49.2617L46.3644 23.1186C46.3996 22.5288 46.212 21.9473 45.8388 21.4892C45.4655 21.0312 44.9339 20.73 44.3492 20.6452Z" fill="#FFBF9D"/>
<path d="M26.9718 31.3534C26.9635 31.5766 27.0414 31.7944 27.1893 31.9618C27.3372 32.1291 27.5438 32.2331 27.7663 32.2523C27.8753 32.2656 27.9858 32.2569 28.0913 32.2266C28.1969 32.1964 28.2953 32.1453 28.3807 32.0764C28.4662 32.0074 28.5369 31.922 28.5888 31.8252C28.6406 31.7285 28.6725 31.6223 28.6826 31.5129C28.6908 31.2898 28.613 31.0719 28.4651 30.9046C28.3172 30.7373 28.1106 30.6332 27.8881 30.614C27.7791 30.6008 27.6685 30.6095 27.563 30.6397C27.4574 30.67 27.359 30.7211 27.2736 30.79C27.1882 30.859 27.1174 30.9444 27.0656 31.0411C27.0137 31.1379 26.9818 31.2441 26.9718 31.3534Z" fill="#263238"/>
<path d="M25.519 29.292C25.6205 29.408 26.2903 28.9528 27.2182 29.0021C28.1461 29.0514 28.8014 29.5298 28.9058 29.4196C28.958 29.3732 28.8565 29.1674 28.5694 28.9383C28.1806 28.6454 27.7106 28.4803 27.224 28.4656C26.7428 28.4447 26.2674 28.5778 25.867 28.8455C25.5741 29.0398 25.4697 29.2398 25.519 29.292Z" fill="#263238"/>
<path d="M35.0965 31.3534C35.0883 31.5766 35.1662 31.7944 35.3141 31.9618C35.462 32.1291 35.6685 32.2331 35.891 32.2523C36.0001 32.266 36.1108 32.2576 36.2165 32.2275C36.3222 32.1974 36.4208 32.1464 36.5063 32.0773C36.5918 32.0083 36.6626 31.9228 36.7143 31.8258C36.766 31.7288 36.7977 31.6224 36.8073 31.5129C36.8156 31.2898 36.7377 31.0719 36.5898 30.9046C36.4419 30.7373 36.2353 30.6332 36.0128 30.614C35.9038 30.6008 35.7933 30.6095 35.6878 30.6397C35.5822 30.67 35.4838 30.7211 35.3984 30.79C35.3129 30.859 35.2422 30.9444 35.1903 31.0411C35.1385 31.1379 35.1066 31.2441 35.0965 31.3534Z" fill="#263238"/>
<path d="M34.6211 29.4138C34.7226 29.5327 35.3924 29.0745 36.3174 29.1238C37.2424 29.1731 37.9035 29.6516 38.0079 29.5414C38.0601 29.4921 37.9586 29.2862 37.6715 29.06C37.2819 28.7663 36.8109 28.6002 36.3232 28.5845C35.8422 28.5658 35.3675 28.6987 34.9662 28.9644C34.6762 29.1499 34.5689 29.3471 34.6211 29.4138Z" fill="#263238"/>
<path d="M31.0168 35.3986C31.0168 35.3464 30.4513 35.2246 29.5234 35.0681C29.2886 35.0362 29.0682 34.9782 29.0334 34.8158C29.0236 34.5713 29.0883 34.3296 29.219 34.1228L29.9874 32.3511C31.0603 29.8284 31.846 27.7494 31.7417 27.7117C31.6373 27.674 30.6891 29.6776 29.6191 32.2032L28.8797 33.9865C28.7187 34.2651 28.6621 34.592 28.7203 34.9086C28.7504 34.9934 28.7999 35.0701 28.8648 35.1325C28.9298 35.1949 29.0083 35.2414 29.0943 35.2681C29.2241 35.3091 29.3585 35.3335 29.4944 35.3406C30.4281 35.4247 31.011 35.4508 31.0168 35.3986Z" fill="#263238"/>
<path d="M30.1353 46.3215C33.2893 46.4983 36.4303 45.7956 39.2083 44.2917C39.2083 44.2917 36.8045 48.8964 30.1208 48.0033L30.1353 46.3215Z" fill="#FF9A6C"/>
<path d="M34.0181 37.4544C33.9035 37.2642 33.7438 37.1052 33.5532 36.9914C33.3625 36.8776 33.1467 36.8125 32.9249 36.802C32.6147 36.768 32.3011 36.8172 32.0162 36.9446C31.7313 37.072 31.4855 37.273 31.304 37.5269C31.1747 37.7663 31.1385 38.0452 31.2026 38.3098C31.2576 38.4431 31.2026 38.3765 31.3127 38.4721C31.6458 38.8415 32.0638 39.1241 32.5306 39.2956C32.7832 39.369 33.052 39.3648 33.3022 39.2837C33.5525 39.2025 33.7726 39.0481 33.934 38.8404C34.0733 38.6391 34.1548 38.4035 34.1696 38.1591C34.1845 37.9148 34.1321 37.671 34.0181 37.4544Z" fill="#FF9A6C"/>
<path d="M33.8788 36.1872C33.731 36.1698 33.6817 37.176 32.7915 37.8487C31.9013 38.5214 30.8371 38.3649 30.8226 38.504C30.8052 38.5649 31.0517 38.7099 31.5012 38.7418C32.0888 38.7763 32.6698 38.6029 33.1423 38.2518C33.5971 37.9146 33.902 37.413 33.9919 36.8541C34.0499 36.4366 33.9542 36.1843 33.8788 36.1872Z" fill="#263238"/>
<path d="M34.2702 26.0153C34.3369 26.2733 35.2676 26.2443 36.3376 26.4792C37.4076 26.7141 38.2514 27.0939 38.4166 26.8852C38.492 26.7837 38.3615 26.5314 38.0339 26.2559C37.5917 25.9132 37.0775 25.6753 36.53 25.5602C35.9825 25.4452 35.416 25.4561 34.8733 25.5919C34.4616 25.7137 34.2441 25.8906 34.2702 26.0153Z" fill="#263238"/>
<path d="M25.5973 26.8041C25.8061 26.9868 26.4672 26.6678 27.3371 26.5344C28.2069 26.401 28.9232 26.4474 29.0594 26.2068C29.1145 26.0908 28.9725 25.8994 28.6303 25.7457C28.1691 25.5664 27.667 25.5192 27.1805 25.6094C26.6821 25.6803 26.2149 25.8938 25.8351 26.2242C25.5683 26.4822 25.5016 26.7113 25.5973 26.8041Z" fill="#263238"/>
<path d="M31.9242 16.2668C31.9242 16.3161 31.9039 16.3625 31.8923 16.4118H31.9155L31.9242 16.2668Z" fill="#263238"/>
<path d="M41.7077 48.7136C41.5568 48.7561 41.3986 48.7664 41.2435 48.7439C41.0884 48.7214 40.9397 48.6665 40.8071 48.5829C40.6745 48.4992 40.561 48.3887 40.4739 48.2583C40.3868 48.128 40.328 47.9808 40.3014 47.8264C40.0884 46.4766 40.0767 45.1027 40.2666 43.7495C40.484 41.8879 41.7483 39.9394 41.9049 38.0691C42.1948 34.5055 41.8904 32.5076 41.4931 29.5181C39.8142 29.3093 38.2484 28.3032 37.1437 26.9983C35.7982 25.4325 34.9863 23.4898 34.1947 21.5818C34.2437 23.4692 34.8814 25.2941 36.0186 26.8012C35.6413 26.8594 35.2557 26.8283 34.8926 26.7105C34.5295 26.5926 34.1992 26.3913 33.928 26.1227C33.3908 25.5801 32.973 24.9312 32.7014 24.2176C31.9765 22.5185 31.5734 20.6996 31.5126 18.8533C31.2604 21.495 31.5566 24.1604 32.3825 26.6823C31.9127 26.5373 31.4082 26.6678 30.9327 26.7374C30.4571 26.807 29.8888 26.7954 29.5437 26.4474C29.3352 26.1906 29.2035 25.8799 29.1639 25.5514C28.7024 23.3063 28.6279 20.9988 28.9435 18.7286C28.3078 19.9315 27.7921 21.1941 27.4038 22.4981C27.0189 23.8147 27.0089 25.2125 27.3748 26.5344C27.3208 26.5901 27.2561 26.6343 27.1846 26.6646C27.1131 26.6948 27.0363 26.7104 26.9587 26.7104C26.8811 26.7104 26.8043 26.6948 26.7328 26.6646C26.6614 26.6343 26.5967 26.5901 26.5426 26.5344C26.3308 26.3028 26.2031 26.0066 26.1802 25.6935C26.0033 24.5656 26.2005 23.4173 26.4006 22.2951C25.7307 23.484 25.5075 24.8642 25.1363 26.1748C24.7652 27.4855 24.1736 28.8367 23.0341 29.5848C22.8415 27.8701 22.8981 26.1365 23.2023 24.438C23.4255 23.0317 24.0924 21.6369 24.7101 20.3553C25.3644 18.9355 26.287 17.6555 27.427 16.5858C29.4046 14.846 30.231 15.5999 31.4865 16.2581L31.6344 16.3219C31.6344 16.29 31.6344 16.2581 31.6344 16.2291L31.6895 15.9595C34.9934 15.2206 38.4351 15.3818 41.6555 16.4263C44.0332 17.2005 44.2651 22.3212 44.8451 19.8885C45.1959 18.4155 47.1039 19.7609 47.1271 19.8015C49.931 24.8613 52.906 32.8875 53.0423 45.5704L41.7077 48.7136Z" fill="#263238"/>
<g opacity="0.3">
<path d="M25.1917 81.7839C23.3939 93.5758 21.5971 105.368 19.8013 117.159L20.2188 120.993C20.6915 121.532 21.6338 121.352 22.1152 120.819C22.5965 120.285 22.7386 119.54 22.8575 118.832C24.9104 106.599 26.0181 94.1566 25.1917 81.7839Z" fill="black"/>
</g>
<path d="M25.0233 51.9902L18.9341 53.179C17.6359 53.4488 16.4341 54.0628 15.4546 54.9565C14.4751 55.8503 13.754 56.991 13.3668 58.2592C13.1748 58.8862 13.0361 59.5283 12.9522 60.1787C12.4215 64.2904 9.90755 75.4076 9.90755 75.4076C9.90755 75.4076 4.30257 78.0723 4.059 80.3572C3.81543 82.6421 5.99885 86.7886 5.99885 86.7886C5.99885 86.7886 8.42004 93.1504 11.6328 94.4784C15.1588 95.9282 17.6119 91.5469 17.6119 91.5469C17.6351 91.947 17.6495 92.1703 17.6495 92.1703L8.42004 113.048C10.7687 117.238 15.1791 122.144 19.659 123.211C19.659 123.211 24.858 90.7669 25.1509 83.6802C25.4438 76.5935 29.9933 49.0529 29.9933 49.0529L25.0233 51.9902Z" fill="#0093B9"/>
<path d="M3.66763 56.7658C3.66763 56.7658 2.69335 56.3773 2.42079 57.1921C2.24391 57.7198 1.88725 59.1145 1.65528 60.0279C1.58896 60.2926 1.58053 60.5684 1.63057 60.8366C1.68062 61.1049 1.78795 61.3591 1.94525 61.5821L2.68755 62.6202C2.42953 63.2773 2.38888 63.9998 2.57157 64.6818C2.57157 64.6818 1.42622 65.8416 1.5712 66.8681C1.5712 66.8681 0.103984 67.8018 0.478036 69.356C0.852088 70.9102 5.19862 75.6192 5.19862 75.6192L7.97647 76.4891L11.5517 73.7779C11.5517 73.7779 12.3607 69.4285 12.2157 67.5553C12.0417 65.3052 11.2009 65.0819 11.2009 65.0819L7.46034 61.5618L6.12651 59.6654C6.12651 59.6654 4.87097 59.8626 5.09714 61.4835L3.97788 60.6919L3.68792 59.3523C3.68792 59.3523 4.51142 57.6763 3.66763 56.7658Z" fill="#FFBF9D"/>
<path d="M0.608398 49.0616C0.834569 49.1891 5.18691 61.8344 5.18691 61.8344L6.24237 62.3622L1.55948 48.7832L0.608398 49.0616Z" fill="#263238"/>
<path d="M4.69123 64.2643C4.73813 64.2849 4.78283 64.3101 4.82462 64.3397L5.18997 64.5746L6.5267 65.4445C6.81666 65.6242 7.10663 65.8243 7.46328 66.0244C7.63146 66.1259 7.80833 66.2245 7.99391 66.3144C8.17451 66.4158 8.37036 66.4873 8.57383 66.526C8.67187 66.5393 8.77169 66.5274 8.8638 66.4912C8.95358 66.4468 9.02453 66.3717 9.06387 66.2796C9.14684 66.067 9.18914 65.8408 9.18855 65.6126C9.20199 65.498 9.20199 65.3822 9.18855 65.2676C9.15512 65.1572 9.10315 65.0532 9.03487 64.9602C8.89168 64.757 8.72743 64.5694 8.54484 64.4006C7.83696 63.7492 7.07554 63.1585 6.26863 62.6347C5.62386 62.1873 4.94523 61.7908 4.23889 61.4488C4.10569 61.3958 3.95994 61.3826 3.8194 61.4109C3.67885 61.4392 3.54957 61.5078 3.44729 61.6083C3.27645 61.7559 3.12712 61.9267 3.00365 62.1157C2.79198 62.426 2.71369 62.6173 2.69629 62.6115C2.7074 62.5621 2.72495 62.5143 2.74848 62.4694C2.80821 62.3363 2.87699 62.2075 2.95436 62.0838C3.07258 61.8832 3.22017 61.7014 3.3922 61.5445C3.50143 61.4423 3.63224 61.366 3.77495 61.3212C3.94018 61.27 4.11836 61.2803 4.27658 61.3502C4.99846 61.6772 5.69109 62.0652 6.34692 62.51C7.17067 63.0314 7.9469 63.6242 8.66662 64.2817C8.85454 64.4578 9.02452 64.652 9.17406 64.8616C9.25257 64.9694 9.31146 65.0901 9.34804 65.2183C9.36838 65.3458 9.37324 65.4753 9.36253 65.6039C9.36161 65.8524 9.3134 66.0984 9.22045 66.3288C9.16737 66.4541 9.07191 66.5568 8.95078 66.6188C8.83283 66.6649 8.70476 66.6789 8.57963 66.6594C8.35842 66.6193 8.14566 66.5418 7.95042 66.4303C7.76194 66.3289 7.58506 66.2245 7.41398 66.1201C7.07473 65.9142 6.76736 65.7083 6.4861 65.5228C5.92647 65.1487 5.47993 64.8326 5.17257 64.6123L4.82462 64.3542C4.72893 64.3049 4.68833 64.2701 4.69123 64.2643Z" fill="#FF9A6C"/>
<path d="M2.72241 66.5927C2.8055 66.5662 2.89095 66.5477 2.97758 66.5376L3.70539 66.4158L4.86524 67.2567C5.34077 67.7555 5.90911 68.3441 6.56442 68.9588C6.7297 69.1125 6.90078 69.2691 7.08055 69.4169C7.24649 69.5748 7.4442 69.6954 7.66048 69.7707C7.76927 69.7957 7.88309 69.7869 7.98672 69.7454C8.09036 69.704 8.17887 69.6318 8.24041 69.5387C8.38364 69.3405 8.47713 69.1108 8.51297 68.8689C8.52144 68.7512 8.49086 68.634 8.42598 68.5355C8.36694 68.4214 8.30109 68.311 8.2288 68.2049C8.08672 67.9903 7.93884 67.7844 7.77646 67.5873C7.4633 67.1929 7.14144 66.8276 6.83118 66.4825C6.28448 65.8708 5.69744 65.2963 5.07401 64.763C4.84064 64.5572 4.56274 64.4084 4.26212 64.3281C4.03543 64.2725 3.79869 64.2725 3.572 64.3281C3.37717 64.3811 3.19144 64.4632 3.02108 64.5717C3.05513 64.5299 3.09637 64.4945 3.14286 64.4673C3.26968 64.3817 3.40842 64.3152 3.55461 64.2701C3.78963 64.1982 4.03908 64.1872 4.27951 64.2382C4.6004 64.309 4.89907 64.4574 5.1494 64.6702C5.78759 65.1961 6.38651 65.7679 6.94137 66.381C7.25743 66.7232 7.58219 67.0885 7.90114 67.4887C8.05772 67.6859 8.2143 67.8917 8.36218 68.1121C8.43468 68.2252 8.50717 68.3354 8.57096 68.4601C8.65099 68.587 8.68669 68.7369 8.67245 68.8863C8.63491 69.1512 8.53558 69.4035 8.38248 69.6228C8.29856 69.7338 8.18781 69.8216 8.06063 69.878C7.9312 69.9321 7.78756 69.9423 7.65178 69.907C7.41249 69.8255 7.1938 69.693 7.01096 69.5184C6.82828 69.3676 6.65721 69.2082 6.49193 69.0545C5.83662 68.4282 5.27409 67.8337 4.80725 67.3147L3.66769 66.4448H3.69379L2.96308 66.5318C2.88472 66.5589 2.80421 66.5792 2.72241 66.5927Z" fill="#FF9A6C"/>
<path d="M7.27758 69.562C7.2667 69.648 7.24325 69.7321 7.20799 69.8113C7.17822 69.9105 7.14139 70.0074 7.0978 70.1013C7.06014 70.1643 7.00973 70.2188 6.94982 70.2612C6.8899 70.3037 6.82179 70.3332 6.74984 70.3478C6.39433 70.4007 6.0319 70.384 5.68278 70.2985C5.27008 70.1657 4.87332 69.9878 4.49974 69.7678C4.0242 69.504 3.58925 69.2372 3.2181 68.9936H3.30219L3.2181 69.0748C3.13006 69.1787 3.01124 69.2518 2.87884 69.2836C2.7721 69.3179 2.66241 69.3421 2.55118 69.3561C2.37324 69.3782 2.19406 69.3888 2.01475 69.388C1.85932 69.4037 1.70232 69.3869 1.55371 69.3387C1.59316 69.3333 1.63315 69.3333 1.6726 69.3387L2.01475 69.3213C2.15974 69.3213 2.33661 69.2923 2.53379 69.2575C2.63801 69.2389 2.74073 69.2128 2.84115 69.1792C2.94506 69.1515 3.03809 69.0928 3.10791 69.011L3.192 68.924L3.2268 68.8864L3.27609 68.9154C3.65014 69.1473 4.08798 69.4083 4.55772 69.6692C4.91988 69.883 5.30262 70.0598 5.70018 70.197C6.02894 70.2843 6.37057 70.3128 6.70925 70.2811C6.76763 70.2704 6.82331 70.2482 6.87308 70.2158C6.92285 70.1835 6.96572 70.1416 6.99921 70.0926C7.05431 69.9998 7.0891 69.8983 7.1268 69.8258C7.16187 69.73 7.21284 69.6408 7.27758 69.562Z" fill="#FF9A6C"/>
<path d="M11.6765 72.618L5.45386 75.68L5.74382 81.5083C5.74382 81.5083 10.1976 82.0882 14.1527 77.0632L11.6765 72.618Z" fill="#FFBF9D"/>
<path d="M8.40552 113.045C8.41691 113.008 8.43046 112.972 8.44611 112.937L8.57659 112.627L9.08692 111.441L11.0065 107.043C12.6535 103.299 14.9529 98.0798 17.5683 92.1413V92.1732C17.5219 90.5756 17.461 88.9083 17.3828 87.2091C17.203 83.3758 16.9942 79.7251 16.855 76.4051C16.7158 73.085 16.6289 70.0868 16.6028 67.5728C16.5767 65.0588 16.6028 63.0204 16.6028 61.6141L16.6405 59.9961C16.6405 59.8163 16.6405 59.6771 16.6405 59.5756C16.6405 59.4742 16.6405 59.4307 16.6405 59.4307C16.643 59.479 16.643 59.5274 16.6405 59.5756C16.6405 59.6771 16.6405 59.8163 16.6405 59.9961C16.6405 60.373 16.6405 60.9182 16.6405 61.617C16.6405 63.0233 16.6405 65.0559 16.6752 67.5699C16.71 70.0839 16.8086 73.0792 16.9652 76.3964C17.1218 79.7136 17.3132 83.37 17.5045 87.2033C17.5828 88.9025 17.6408 90.5697 17.6901 92.1703V92.1848V92.2022L11.0848 107.08C10.2642 108.939 9.59726 110.429 9.13332 111.473L8.59979 112.633C8.5418 112.763 8.4925 112.862 8.4606 112.937C8.44464 112.974 8.42625 113.01 8.40552 113.045Z" fill="#263238"/>
<path d="M24.8058 80.1571C24.7934 80.1334 24.7845 80.108 24.7797 80.0817L24.7246 79.8555C24.6753 79.6468 24.6086 79.3539 24.5217 78.9857C24.3651 78.226 24.1389 77.1212 23.9417 75.7468C23.7446 74.3724 23.53 72.7283 23.3618 70.8986C23.1936 69.0689 23.0718 67.0508 22.9733 64.9312C22.9385 64.1425 22.9037 63.3654 22.8689 62.6115C22.8515 62.2316 22.837 61.8576 22.8196 61.4893L22.7935 60.9384V60.6658V60.5266C22.7935 60.5034 22.7935 60.4773 22.7935 60.4513V60.402C22.7985 60.3912 22.8054 60.3814 22.8138 60.373C22.8244 60.3627 22.8373 60.3553 22.8515 60.3512C22.8656 60.3472 22.8806 60.3467 22.895 60.3498C22.9472 60.3788 22.9327 60.3817 22.9472 60.3962L22.8428 60.373L24.4724 59.2363V59.3552L22.7036 58.5259L22.6543 58.5027L22.6688 58.4534C22.9356 57.4472 23.2487 56.5542 23.5387 55.7626C23.8286 54.971 24.0809 54.2895 24.2984 53.7328C24.5159 53.1761 24.6927 52.7382 24.8145 52.4425C24.8754 52.3033 24.9218 52.1902 24.9566 52.1061C24.9724 52.0672 24.9908 52.0294 25.0117 51.993C25.0061 52.0342 24.9944 52.0743 24.9769 52.1119L24.8493 52.457L24.3854 53.7705C24.1795 54.333 23.9301 55.0203 23.6547 55.8003C23.3792 56.5803 23.0747 57.4878 22.8167 58.4853L22.7819 58.4128L24.5565 59.2334L24.6637 59.2827L24.5681 59.3523L22.9443 60.4947L22.8399 60.4716C22.8399 60.4716 22.8921 60.4339 22.8863 60.4339C22.8952 60.4424 22.9062 60.4484 22.9182 60.4513H22.9414V60.5121V60.6426V60.9123C22.9414 61.095 22.9588 61.2776 22.9704 61.4603C22.9878 61.8315 23.0023 62.2055 23.0197 62.5854C23.0544 63.3422 23.0921 64.1193 23.1269 64.9051C23.2255 67.0218 23.3502 69.037 23.5039 70.8667C23.6576 72.6964 23.8489 74.3463 24.0432 75.712C24.2375 77.0777 24.4434 78.1912 24.5825 78.9538C24.6579 79.3288 24.7159 79.6187 24.7565 79.8237L24.7971 80.0527C24.8029 80.1397 24.8058 80.1571 24.8058 80.1571Z" fill="#263238"/>
<path d="M16.8926 77.5476C16.8665 77.5476 16.8549 77.2866 16.7128 76.8952C16.5327 76.3857 16.1989 75.9447 15.7574 75.633C15.3159 75.3214 14.7885 75.1545 14.2482 75.1554C13.8335 75.1554 13.5812 75.2337 13.5754 75.2076C13.7829 75.1024 14.0127 75.0487 14.2453 75.051C14.8138 75.0175 15.3769 75.1772 15.8433 75.504C16.3096 75.8309 16.6518 76.3058 16.8143 76.8517C16.8977 77.0736 16.9246 77.3127 16.8926 77.5476Z" fill="#263238"/>
<path d="M14.7209 76.1151C14.6596 76.2636 14.5869 76.407 14.5035 76.5443C14.4182 76.7122 14.3213 76.874 14.2135 77.0285C14.0859 77.2083 13.9554 77.4257 13.7757 77.6374C13.6887 77.7447 13.5959 77.8578 13.5031 77.9767C13.4103 78.0956 13.2914 78.2028 13.1812 78.3246C12.9426 78.5781 12.6909 78.8191 12.4273 79.0466C11.2109 80.0904 9.77017 80.8396 8.21707 81.2358C7.879 81.3228 7.53631 81.3905 7.19061 81.4388C7.03113 81.462 6.87454 81.491 6.72376 81.5026L6.28882 81.5316C6.03869 81.5459 5.78795 81.5459 5.53782 81.5316C5.34971 81.5337 5.1617 81.5221 4.97529 81.4968C4.81517 81.4864 4.65616 81.4631 4.49976 81.4272C4.49976 81.3895 5.18406 81.4968 6.28012 81.4272L6.70927 81.3895C6.86005 81.375 7.01373 81.3431 7.17321 81.3199C7.49217 81.2764 7.82852 81.1865 8.17937 81.1054C9.7074 80.6983 11.127 79.9598 12.3374 78.9422C12.6007 78.7215 12.8523 78.4873 13.0913 78.2405C13.2015 78.1217 13.3175 78.0173 13.4132 77.9013C13.5089 77.7853 13.6046 77.678 13.7032 77.5736C14.3846 76.7153 14.689 76.0977 14.7209 76.1151Z" fill="#263238"/>
<path d="M7.94441 69.8142C7.9908 69.8142 7.9705 70.4086 8.17058 71.1016C8.37065 71.7947 8.69541 72.2934 8.65482 72.3195C8.36278 71.9778 8.14808 71.577 8.02546 71.1446C7.90284 70.7122 7.87519 70.2583 7.94441 69.8142Z" fill="#FF9A6C"/>
<path d="M8.14727 66.5291C8.18787 66.5436 8.12987 66.79 8.08928 67.109C8.04868 67.4279 8.03999 67.6657 7.9965 67.6686C7.953 67.6715 7.89501 67.4134 7.9385 67.0887C7.98199 66.7639 8.10088 66.5291 8.14727 66.5291Z" fill="#FF9A6C"/>
<path d="M53.3815 95.7195L59.2881 55.9685L48.3855 51.9728C48.3855 51.9728 45.8309 49.6241 44.471 48.4062L43.9925 54.5535C43.9925 54.5535 42.505 79.6845 44.8276 92.3356C47.1502 104.987 46.8197 104.563 48.5189 112.798C49.7541 118.789 49.9687 124.023 51.8186 124.55C53.6686 125.078 60.1203 115.646 60.1203 115.646L53.3815 95.7195Z" fill="#0093B9"/>
<path d="M59.2764 55.9686C59.2764 55.9686 62.582 57.5895 63.0749 62.2057C63.5127 66.2652 64.2348 91.202 64.1391 93.2056C64.0434 95.2093 62.3152 100.898 59.2097 101.096C54.2948 101.409 52.9436 97.616 52.9436 97.616L54.2513 84.8837L59.2764 55.9686Z" fill="#0093B9"/>
<path d="M46.7733 78.8204V78.745C46.7733 78.687 46.7965 78.6174 46.8139 78.5275C46.8545 78.3275 46.9096 78.0491 46.9792 77.6982C47.1097 76.9733 47.3098 75.9266 47.4954 74.6246C47.8839 72.015 48.2145 68.3991 48.4058 64.3889C48.4522 63.4437 48.4957 62.5187 48.5363 61.6256C48.5566 61.1791 48.5769 60.7383 48.5972 60.3092C48.5972 60.0946 48.6204 59.88 48.6291 59.6713C48.6291 59.5669 48.6291 59.4625 48.6436 59.3581V59.2044C48.6452 59.1812 48.6452 59.158 48.6436 59.1348C48.6444 59.1271 48.6444 59.1193 48.6436 59.1116C48.6493 59.1172 48.6561 59.1214 48.6637 59.1239C48.6712 59.1264 48.6792 59.1272 48.6871 59.1261C48.7045 59.1261 48.7335 59.1058 48.7277 59.1087L48.6262 59.129L47.0024 57.9866L46.9096 57.9199L47.0111 57.8735L48.7886 57.0558L48.7567 57.1225C48.5976 56.4094 48.4766 55.6883 48.3942 54.9623C48.313 54.3214 48.2319 53.7705 48.1449 53.3269C48.0579 52.8832 47.9622 52.5382 47.8926 52.3091C47.8578 52.2018 47.8288 52.1177 47.8085 52.0481C47.796 52.0194 47.7872 51.9892 47.7824 51.9583C47.8 51.9842 47.8136 52.0125 47.823 52.0423C47.8462 52.1003 47.8839 52.1844 47.9245 52.2975C48.0417 52.6296 48.1386 52.9685 48.2145 53.3124C48.3101 53.7589 48.4 54.3098 48.5044 54.9478C48.6088 55.5857 48.6929 56.3135 48.8843 57.0935V57.1399L48.8408 57.1602L47.072 57.9924V57.8793L48.7016 59.0159L48.6001 59.0362V59.0159C48.6147 59.0009 48.6343 58.9916 48.6552 58.9898C48.6751 58.9884 48.6948 58.9946 48.7103 59.0072L48.7248 59.0246C48.7264 59.0333 48.7264 59.0421 48.7248 59.0507C48.7264 59.0681 48.7264 59.0856 48.7248 59.1029C48.7248 59.1348 48.7248 59.1609 48.7248 59.187V59.3465V59.6626C48.7248 59.8742 48.7016 60.0859 48.6929 60.3005C48.6726 60.7325 48.6552 61.1704 48.6349 61.6169C48.5943 62.5119 48.5518 63.433 48.5073 64.3802C48.3679 67.8104 48.0485 71.2309 47.5505 74.6275C47.3533 75.9295 47.1358 76.9733 46.9879 77.6953C46.9038 78.0433 46.84 78.3216 46.7936 78.5217L46.7415 78.7334C46.7572 78.7603 46.768 78.7897 46.7733 78.8204Z" fill="#263238"/>
<g opacity="0.3">
<path d="M30.7414 99.3093C30.7414 99.3093 29.9962 100.278 31.6345 100.574C33.2727 100.869 51.8188 99.5007 51.8188 99.5007L55.3447 101.548L54.8837 100.069L51.9318 96.9316L30.7414 99.3093Z" fill="black"/>
</g>
<path d="M53.0307 68.4602L29.6772 69.6519C29.412 69.6652 29.1612 69.7763 28.9732 69.9637C28.7852 70.1512 28.6734 70.4017 28.6594 70.6668L27.1081 98.3669C27.0997 98.5177 27.1232 98.6686 27.1771 98.8098C27.2309 98.9509 27.3139 99.0791 27.4205 99.1861C27.5272 99.293 27.6552 99.3763 27.7962 99.4305C27.9373 99.4847 28.0881 99.5086 28.2389 99.5006L50.8966 98.3147C51.1566 98.3015 51.4029 98.1942 51.5896 98.0128C51.7763 97.8314 51.8907 97.5883 51.9115 97.3288L54.1558 69.62C54.1679 69.4676 54.1474 69.3143 54.0957 69.1704C54.0439 69.0266 53.9621 68.8954 53.8556 68.7856C53.7491 68.6759 53.6205 68.5901 53.4783 68.5339C53.336 68.4778 53.1835 68.4527 53.0307 68.4602Z" fill="#263238"/>
<path d="M57.9311 62.3882C57.9235 62.472 57.9109 62.5553 57.8934 62.6376C57.8586 62.8144 57.8122 63.0493 57.7571 63.3451L57.2439 65.9547C56.8177 68.1497 56.2609 71.1741 55.7274 74.5579C55.1939 77.9418 54.7879 80.9893 54.5183 83.2075C54.3849 84.3094 54.2776 85.2024 54.2022 85.8375C54.1645 86.1274 54.1355 86.3768 54.1152 86.5537C54.1077 86.6367 54.0941 86.7191 54.0746 86.8001C54.0669 86.7172 54.0669 86.6337 54.0746 86.5508C54.092 86.371 54.1094 86.1332 54.1355 85.8317C54.1906 85.2082 54.2805 84.3094 54.4023 83.1959C54.6458 80.9719 55.0373 77.907 55.5621 74.5318C56.087 71.1567 56.6727 68.1236 57.125 65.9344C57.3512 64.8384 57.5426 63.954 57.6847 63.3451C57.7542 63.0551 57.8064 62.8173 57.847 62.6434C57.8678 62.5561 57.8959 62.4707 57.9311 62.3882Z" fill="#263238"/>
<path d="M53.5063 86.6004C53.5063 86.6004 54.8517 86.6787 56.0406 88.6678L58.3168 90.1176C58.3168 90.1176 60.3088 93.2463 58.3168 96.1691C56.3247 99.092 53.9209 96.607 53.9209 96.607C53.9209 96.607 51.5143 97.7987 50.8444 97.5928C50.1746 97.387 45.6251 94.9339 44.9466 94.3714C44.7494 94.2032 43.2822 92.5185 43.2822 92.5185C43.2822 92.5185 41.2525 92.0836 41.0147 91.6167C40.7769 91.1499 40.7653 90.0828 42.1369 90.1872C42.1369 90.1872 40.803 89.7842 40.6494 89.1114C40.4957 88.4387 40.6494 87.563 43.0126 87.8994C45.3757 88.2358 49.905 89.4942 50.4298 89.3666C50.4846 89.3357 50.5294 89.2896 50.5587 89.2339C50.588 89.1782 50.6007 89.1153 50.5952 89.0526C50.5897 88.9899 50.5662 88.9301 50.5276 88.8804C50.4891 88.8306 50.437 88.7931 50.3776 88.7722C50.2094 88.6939 44.8683 86.6178 44.0129 86.3829C43.0879 86.1306 42.9546 84.0632 44.8683 84.5561C46.7821 85.0491 53.0163 86.5482 53.0163 86.5482L53.5063 86.6004Z" fill="#FFBF9D"/>
<path d="M49.989 94.5191C49.6534 94.4441 49.3231 94.3472 49.0002 94.2292C48.3942 94.0291 47.5504 93.7623 46.6225 93.4898C45.6946 93.2172 44.8392 92.9939 44.2216 92.8344C43.8835 92.7622 43.551 92.6653 43.2271 92.5445C43.3198 92.5437 43.4123 92.5544 43.5025 92.5764C43.6794 92.6054 43.9346 92.6547 44.2477 92.7184C44.8711 92.8518 45.7294 93.0606 46.666 93.3332C47.6026 93.6057 48.4377 93.8928 49.035 94.1161C49.325 94.2292 49.5743 94.3219 49.7396 94.406C49.8273 94.4326 49.9112 94.4706 49.989 94.5191Z" fill="#FF9A6C"/>
<path d="M50.7545 92.0455C50.638 92.0488 50.5215 92.0411 50.4065 92.0223C50.1833 91.9962 49.8585 91.9556 49.4613 91.8947C48.6668 91.7759 47.5707 91.5874 46.3703 91.3148C45.1698 91.0423 44.0941 90.7842 43.3199 90.5638C42.9313 90.4565 42.6211 90.3637 42.4065 90.2941C42.2927 90.2639 42.1821 90.2232 42.0759 90.1724C42.193 90.1803 42.3088 90.2017 42.421 90.2362L43.346 90.4623C44.126 90.6537 45.2046 90.9118 46.4022 91.1669C47.5997 91.4221 48.69 91.6309 49.4787 91.7759L50.4152 91.9498C50.5321 91.9664 50.6462 91.9986 50.7545 92.0455Z" fill="#FF9A6C"/>
<path d="M57.2295 91.512C57.2421 91.5937 57.2421 91.6768 57.2295 91.7585C57.2189 91.9799 57.1898 92.2001 57.1426 92.4167C56.8353 93.8767 55.9856 95.1658 54.7649 96.0238C54.5815 96.1531 54.3875 96.2666 54.1849 96.3631C54.0429 96.4327 53.9617 96.4674 53.9588 96.4558C53.9559 96.4442 54.2487 96.2732 54.6953 95.9368C55.2672 95.4967 55.762 94.9646 56.1596 94.3623C56.5553 93.7581 56.8492 93.0929 57.0295 92.3935C57.1773 91.857 57.2005 91.5091 57.2295 91.512Z" fill="#FF9A6C"/>
<path d="M57.9834 96.9315C57.9602 96.9112 58.2734 96.6096 58.6271 96.0152C59.0916 95.2442 59.3502 94.3667 59.3781 93.467C59.4061 92.5673 59.2024 91.6754 58.7866 90.8771C58.4734 90.2624 58.1777 89.9405 58.2067 89.9231C58.2871 89.9853 58.3583 90.0585 58.4183 90.1406C58.5967 90.3546 58.7549 90.5847 58.891 90.8278C59.3432 91.6344 59.5668 92.5492 59.5376 93.4735C59.5085 94.3978 59.2278 95.2966 58.7257 96.0732C58.5765 96.3064 58.4067 96.5257 58.2183 96.7285C58.1494 96.8064 58.0704 96.8747 57.9834 96.9315Z" fill="#263238"/>
<path d="M63.2405 86.9888C63.2231 87.0149 62.8577 86.7336 62.1995 86.4088C61.8136 86.2234 61.4131 86.0701 61.002 85.9507C60.5014 85.8094 59.9889 85.7143 59.471 85.6665C58.9478 85.6321 58.4227 85.6467 57.9023 85.71C57.4786 85.766 57.0605 85.8581 56.6525 85.9855C55.9537 86.2059 55.5507 86.4291 55.5391 86.4001C55.6231 86.3345 55.7146 86.279 55.8116 86.2349C55.9207 86.1718 56.034 86.1166 56.1509 86.0696C56.3031 85.9995 56.4589 85.9376 56.6177 85.884C57.0291 85.7399 57.4535 85.636 57.8849 85.5737C58.4141 85.5008 58.9494 85.4814 59.4826 85.5158C60.0147 85.5603 60.5411 85.6575 61.0541 85.8057C61.4708 85.9331 61.8746 86.0991 62.2604 86.3015C62.4086 86.3783 62.5528 86.4625 62.6924 86.5538C62.8015 86.6183 62.9061 86.69 63.0056 86.7684C63.0928 86.8317 63.1717 86.9058 63.2405 86.9888Z" fill="#263238"/>
<g opacity="0.3">
<path d="M47.9795 52.4745C47.9795 52.4745 49.9483 57.0675 49.6729 57.4502C49.3974 57.833 48.3622 58.1056 48.3622 58.1056C48.3622 58.1056 50.0585 58.8363 50.0556 59.4887C50.0556 60.7848 48.2376 68.4572 48.2376 68.4572L48.687 59.0856L47.0603 57.9461L48.832 57.1226L47.9795 52.4745Z" fill="black"/>
</g>
<path d="M52.9352 69.4459C52.892 69.4532 52.8485 69.4581 52.8047 69.4604L52.4191 69.4894L50.9374 69.5879L45.4919 69.9185L37.4106 70.3882L32.6407 70.6608L31.3881 70.7304L30.756 70.7681C30.6516 70.7681 30.5356 70.7681 30.4428 70.7855C30.3507 70.7989 30.2642 70.8381 30.1934 70.8986C30.1223 70.9601 30.07 71.0405 30.0427 71.1305C30.0218 71.2258 30.0101 71.323 30.0079 71.4205L29.9644 72.0671L29.8774 73.3748C29.3932 80.389 28.9553 86.7363 28.6393 91.3525C28.474 93.6461 28.3493 95.5048 28.2478 96.7951C28.1985 97.4331 28.1579 97.9289 28.1318 98.274C28.1173 98.4392 28.1057 98.5639 28.0999 98.6596C28.0941 98.7553 28.0825 98.7901 28.0825 98.7901C28.0825 98.7901 28.0825 98.7466 28.0825 98.6596C28.0825 98.5726 28.0825 98.4363 28.1028 98.274C28.1231 97.926 28.1521 97.4302 28.1869 96.7922C28.2681 95.499 28.387 93.6403 28.532 91.3467C28.8393 86.7421 29.2598 80.3919 29.7266 73.3691C29.7556 72.9322 29.7846 72.4972 29.8136 72.0642L29.8571 71.4176C29.8587 71.3034 29.8723 71.1897 29.8977 71.0784C29.9357 70.9655 30.0039 70.8652 30.0949 70.7884C30.1884 70.7099 30.3018 70.6587 30.4225 70.6405C30.5414 70.6405 30.6371 70.6405 30.7473 70.6202L31.3794 70.5854L32.632 70.5158L37.4048 70.252L45.4861 69.8141L50.9345 69.5241L52.4162 69.4546L52.8018 69.4401L52.9352 69.4459Z" fill="#455A64"/>
</svg>
