<svg width="90" height="110" viewBox="0 0 90 110" fill="none" xmlns="http://www.w3.org/2000/svg">
<path d="M71.751 74.9919L63.8702 73.3582L73.8459 25.433C74.217 22.9201 73.6642 20.3581 72.2897 18.2208C59.7302 0.857735 39.2999 7.91055 36.1675 22.9127L27.1893 65.7476L19.3085 64.1039L29.374 15.8699C29.8926 13.3746 30.9612 11.026 32.502 8.99446C34.0429 6.96296 36.0175 5.29961 38.2824 4.12514C63.6607 -8.93451 84.9589 11.3672 80.6194 32.177L71.751 74.9919Z" fill="#DFE1E2"/>
<path d="M71.7512 74.9926C71.7512 74.9926 71.8011 74.6938 71.9208 74.1359C72.0405 73.5781 72.2001 72.7313 72.4196 71.6455L74.4148 62.1123C75.2727 57.9782 76.3101 52.9277 77.5172 47.0603L79.5123 37.6765C80.1308 34.3493 81.1583 30.8627 81.1983 27.0973C81.2583 23.1553 80.419 19.2514 78.7442 15.6813C78.5247 15.223 78.3153 14.7449 78.0858 14.2866L77.2877 12.9418C76.7443 12.0408 76.1481 11.1726 75.5021 10.3419C75.1829 9.90354 74.8038 9.525 74.4546 9.11657C74.1055 8.70815 73.7663 8.28976 73.3573 7.93115C72.582 7.15926 71.7554 6.44039 70.8833 5.77944C69.1136 4.39642 67.1764 3.24173 65.1174 2.34269L63.5112 1.745L62.6035 1.44615L61.7655 1.22699L60.0796 0.788681C59.501 0.65918 58.9224 0.599409 58.3438 0.499793C53.5318 -0.215675 48.6154 0.411796 44.1383 2.31281C40.5841 3.82089 37.403 6.08689 34.8182 8.95201C32.2333 11.8171 30.3072 15.212 29.1747 18.8989C28.4465 21.4391 27.9776 24.0988 27.409 26.7486C25.1944 37.3776 22.89 48.3852 20.5457 59.6219C20.2265 61.1261 19.9173 62.6104 19.608 64.1146L19.4584 63.8854L27.3392 65.5291L27.1197 65.6785C28.8954 57.1614 30.6412 48.8235 32.3271 40.7745C33.1717 36.7301 34.0063 32.7455 34.8309 28.8206L36.048 22.9831C36.4753 21.055 37.174 19.1969 38.123 17.4644C40.0458 14.1208 42.9401 11.439 46.4228 9.77404C46.8518 9.58477 47.2608 9.35565 47.7097 9.20623L49.0265 8.748C49.909 8.48301 50.809 8.27996 51.7199 8.14034C52.6247 8.00304 53.5381 7.9298 54.4533 7.92118C54.9022 7.92118 55.3611 7.92118 55.81 7.98095H56.4783L57.1467 8.09053C58.9025 8.32945 60.6154 8.81578 62.2344 9.53496C63.7987 10.2544 65.2638 11.1717 66.5937 12.2644C69.1368 14.4083 71.0732 17.18 72.2101 20.3034C73.3083 23.2267 73.628 26.3845 73.1378 29.4681L72.9583 30.5739C72.8884 30.9325 72.8086 31.2911 72.7388 31.6497L72.2899 33.7815C71.9906 35.1861 71.7014 36.5608 71.422 37.9156C70.2848 43.3147 69.2373 48.2856 68.2996 52.7583C66.4042 61.7238 64.9278 68.6969 63.9501 73.3689L63.9003 73.2991L69.8857 74.5643L71.3422 74.883L71.821 74.9926L71.3522 74.903L69.9057 74.624L63.9203 73.4087V73.3489L68.1699 52.7284C69.0977 48.2457 70.165 43.2749 71.2524 37.8657C71.5317 36.5209 71.8211 35.1363 72.1104 33.7317C72.25 33.0344 72.3996 32.3171 72.5492 31.6099C72.629 31.2512 72.6989 30.8926 72.7787 30.524C72.8585 30.1555 72.8884 29.7968 72.9483 29.4382C73.4262 26.4003 73.1066 23.2906 72.0206 20.413C70.8951 17.3409 68.9827 14.6171 66.474 12.5135C65.1586 11.4393 63.7102 10.5387 62.1645 9.83381C60.5753 9.13443 58.8967 8.65839 57.1766 8.41926L56.5183 8.31965H55.8498C55.4109 8.31965 54.972 8.25988 54.5231 8.31965C52.7178 8.33999 50.9243 8.61499 49.196 9.1365L47.8992 9.59473C47.4697 9.75604 47.05 9.9423 46.6423 10.1526C43.2209 11.786 40.3809 14.424 38.5021 17.7134C37.5789 19.4108 36.9068 21.2328 36.5069 23.1226C36.1079 25.0551 35.7022 27.001 35.2899 28.9601C34.4718 32.8849 33.6405 36.8696 32.7959 40.914L27.5985 65.818V66.0072H27.409L19.5282 64.3636H19.3486V64.1743C19.6579 62.69 19.9671 61.1858 20.2864 59.6816C22.6406 48.4151 24.935 37.4075 27.1596 26.8084C27.7282 24.1486 28.1572 21.5088 28.9353 18.9188C29.7456 16.3871 30.9038 13.98 32.377 11.7664C35.2957 7.48552 39.3901 4.13718 44.1683 2.12353C48.7034 0.203679 53.6817 -0.427204 58.5533 0.300561C59.1419 0.400177 59.7304 0.469909 60.309 0.589448L62.3042 1.10745L63.3716 1.44615L64.9677 2.04384L65.7059 2.35265C67.6576 3.23591 69.4963 4.34958 71.1826 5.66986C72.057 6.34635 72.8898 7.07487 73.6765 7.85145C73.9913 8.19344 74.2909 8.54908 74.5743 8.91734C74.9235 9.33573 75.3125 9.71427 75.6218 10.1526C76.2788 10.9959 76.885 11.8774 77.4374 12.7924L78.2354 14.1472C78.4748 14.6154 78.6744 15.1433 78.9038 15.5617C80.5862 19.1749 81.422 23.1233 81.3479 27.1072C81.3479 30.9125 80.2605 34.4091 79.6321 37.7462C79.0036 41.0833 78.2654 44.2212 77.6369 47.1599C76.3999 53.0273 75.3225 58.1177 74.4546 62.2119C73.5868 66.3061 72.8984 69.5337 72.4595 71.7053L71.9307 74.1658C71.821 74.7236 71.7512 74.9926 71.7512 74.9926Z" fill="#004152"/>
<path d="M15.9077 34.2661L86.3108 48.9148C87.2795 49.1164 88.1283 49.6939 88.6706 50.5205C89.2128 51.347 89.404 52.3548 89.2022 53.3221L78.0795 106.627C77.896 107.507 77.3702 108.277 76.6178 108.77C75.8653 109.262 74.9479 109.435 74.0672 109.252L3.33211 94.5344L15.9077 34.2661Z" fill="#00617A"/>
<g opacity="0.3">
<path d="M15.9443 34.3228L85.9763 48.8942C87.0434 49.1163 87.9785 49.7525 88.5759 50.663C89.1732 51.5735 89.3839 52.6837 89.1615 53.7493L78.1935 106.313C77.9895 107.291 77.4049 108.148 76.5683 108.695C75.7318 109.242 74.7118 109.435 73.7327 109.232L3.36873 94.591L15.9443 34.3228Z" fill="#002029"/>
</g>
<path d="M16.5075 34.393L77.2325 47.028C78.2841 47.2468 79.2055 47.8738 79.7942 48.771C80.3828 49.6683 80.5904 50.7623 80.3713 51.8124L69.6332 103.274C69.3634 104.568 68.5901 105.701 67.4836 106.425C66.377 107.149 65.0278 107.404 63.7328 107.135L4.10157 94.7271C3.56292 94.6151 3.05163 94.3981 2.59694 94.0887C2.14224 93.7794 1.75305 93.3836 1.45154 92.924C1.15002 92.4644 0.942085 91.95 0.839646 91.4102C0.737207 90.8704 0.742254 90.3157 0.854489 89.7778L11.7554 37.5355C11.973 36.4922 12.5943 35.5768 13.4842 34.9883C14.3741 34.3998 15.4606 34.1859 16.5075 34.393Z" fill="#00617A"/>
<g opacity="0.3">
<path d="M51.2407 67.5509C51.4761 66.4244 51.4826 65.2622 51.2599 64.1332C51.0372 63.0042 50.5898 61.9314 49.9441 60.9782C49.2985 60.0251 48.4678 59.2111 47.5013 58.5845C46.5349 57.9578 45.4522 57.5313 44.3176 57.3303C42.1284 56.97 39.8841 57.4567 38.0417 58.6912C36.1994 59.9257 34.8976 61.8152 34.4017 63.9746C34.0085 65.8112 34.23 67.7259 35.0319 69.4247C35.8339 71.1235 37.172 72.5125 38.8409 73.3784L30.9102 83.848L45.385 87.1354L43.3898 74.3347C45.261 74.216 47.0417 73.4884 48.4595 72.2633C49.8774 71.0382 50.8543 69.3829 51.2407 67.5509Z" fill="#002029"/>
</g>
<path d="M69.8754 102.505C69.7756 102.505 71.9304 91.986 74.6837 79.0559C77.437 66.1257 79.7614 55.6461 79.8611 55.666C79.9609 55.686 77.8061 66.1955 75.0528 79.1455C72.2995 92.0956 69.9752 102.525 69.8754 102.505Z" fill="#004152"/>
<path d="M64.9672 46.412C64.9672 46.5116 55.6598 44.7882 44.2276 42.5668C32.7954 40.3454 23.5279 38.4626 23.5479 38.363C23.5678 38.2634 32.8553 39.9768 44.2975 42.1982C55.7397 44.4197 64.9871 46.2725 64.9672 46.412Z" fill="white"/>
<path d="M33.1747 68.5174C33.1747 68.5174 33.055 68.3181 32.9353 67.9196C32.7639 67.3591 32.6568 66.781 32.6161 66.1963C32.4584 64.2442 32.8929 62.2899 33.8631 60.5879C34.8499 58.8966 36.319 57.5371 38.0828 56.683C38.6135 56.4293 39.1683 56.229 39.7388 56.0853C39.9453 56.021 40.1609 55.9907 40.3772 55.9956C40.3772 56.0654 39.4894 56.2447 38.2025 56.9221C36.5287 57.8024 35.1401 59.1399 34.1987 60.7785C33.2572 62.417 32.8018 64.2891 32.8855 66.1764C32.9353 67.6308 33.2446 68.4974 33.1747 68.5174Z" fill="white"/>
<path d="M35.6683 73.1687C35.5984 73.2484 35.1395 72.9395 34.6707 72.4813C34.2018 72.0231 33.8427 71.5947 33.9125 71.4852C33.9823 71.3756 34.4412 71.7242 34.9101 72.1725C35.3789 72.6208 35.7381 73.1687 35.6683 73.1687Z" fill="white"/>
<path d="M56.9667 2.18331C56.9667 2.18331 56.448 2.18331 55.5102 2.08369C54.1804 2.00067 52.8461 2.02399 51.5199 2.15342C47.1546 2.54746 42.991 4.17129 39.5137 6.83597C36.0364 9.50064 33.3883 13.0966 31.8777 17.2054C31.4147 18.443 31.0511 19.7155 30.7903 21.0107C30.6108 21.9272 30.531 22.4452 30.501 22.4452C30.486 22.3195 30.486 22.1924 30.501 22.0667C30.501 21.8176 30.501 21.449 30.6307 20.9808C30.8435 19.6646 31.1774 18.3707 31.6283 17.1157C33.0951 12.9164 35.7597 9.23712 39.2941 6.53086C42.8284 3.82459 47.0781 2.20951 51.5199 1.88446C52.8489 1.77754 54.1851 1.79755 55.5102 1.94423C55.9791 1.94423 56.3382 2.06377 56.5876 2.09366C56.7176 2.10531 56.8452 2.1355 56.9667 2.18331Z" fill="white"/>
<path d="M28.8348 28.88C28.8098 28.1247 28.9109 27.3706 29.134 26.6486C29.2331 25.9032 29.4556 25.1794 29.7924 24.5068C29.8234 25.2584 29.7255 26.0096 29.5031 26.7283C29.4044 27.4782 29.1784 28.2059 28.8348 28.88Z" fill="white"/>
</svg>
